<svg width="24" height="20" viewBox="0 0 24 20" fill="none" xmlns="http://www.w3.org/2000/svg">
<path d="M10.4587 19.5812L8.1712 18.9175C7.9312 18.85 7.7962 18.5987 7.8637 18.3587L12.9824 0.726223C13.0499 0.486223 13.3012 0.351223 13.5412 0.418723L15.8287 1.08247C16.0687 1.14997 16.2037 1.40122 16.1362 1.64122L11.0174 19.2737C10.9462 19.5137 10.6987 19.6525 10.4587 19.5812ZM6.1837 15.3737L7.81495 13.6337C7.98745 13.45 7.9762 13.1575 7.78495 12.9887L4.38745 9.99998L7.78495 7.01123C7.9762 6.84248 7.9912 6.54998 7.81495 6.36623L6.1837 4.62622C6.01495 4.44622 5.72995 4.43497 5.5462 4.60747L0.142461 9.66998C-0.048789 9.84623 -0.048789 10.15 0.142461 10.3262L5.5462 15.3925C5.72995 15.565 6.01495 15.5575 6.1837 15.3737ZM18.4537 15.3962L23.8574 10.33C24.0487 10.1537 24.0487 9.84998 23.8574 9.67373L18.4537 4.60372C18.2737 4.43497 17.9887 4.44247 17.8162 4.62247L16.1849 6.36248C16.0124 6.54623 16.0237 6.83873 16.2149 7.00748L19.6124 9.99998L16.2149 12.9887C16.0237 13.1575 16.0087 13.45 16.1849 13.6337L17.8162 15.3737C17.9849 15.5575 18.2699 15.565 18.4537 15.3962Z" fill="#758393"/>
</svg>
