<svg width="15" height="15" viewBox="0 0 15 15" fill="none" xmlns="http://www.w3.org/2000/svg">
<path fill-rule="evenodd" clip-rule="evenodd" d="M11.875 1.25C12.8718 1.25 13.6897 2.03223 13.7468 3.01501L13.75 3.125V9.375C13.75 10.3718 12.9678 11.1897 11.985 11.2468L11.875 11.25H9.6875L8 13.5C7.88188 13.6575 7.69688 13.75 7.5 13.75C7.32773 13.75 7.16456 13.6792 7.04732 13.556L7 13.5L5.3125 11.25H3.125C2.12817 11.25 1.31033 10.4678 1.25319 9.48499L1.25 9.375V3.125C1.25 2.12817 2.03223 1.31033 3.01501 1.25319L3.125 1.25H11.875ZM11.875 2.5H3.125C2.80522 2.5 2.54041 2.74197 2.50422 3.05226L2.5 3.125V9.375C2.5 9.69478 2.74197 9.95959 3.05226 9.99578L3.125 10H5.625C5.79727 10 5.96044 10.0708 6.07768 10.194L6.125 10.25L7.5 12.0831L8.875 10.25C8.97836 10.1122 9.13292 10.0241 9.30184 10.0043L9.375 10H11.875C12.1948 10 12.4596 9.75803 12.4958 9.44774L12.5 9.375V3.125C12.5 2.80522 12.258 2.54041 11.9477 2.50422L11.875 2.5ZM10.625 6.875C10.97 6.875 11.25 7.155 11.25 7.5C11.25 7.82036 11.0086 8.08467 10.6979 8.12079L10.625 8.125H4.375C4.03 8.125 3.75 7.845 3.75 7.5C3.75 7.17964 3.99143 6.91533 4.30214 6.87921L4.375 6.875H10.625ZM10.625 4.375C10.97 4.375 11.25 4.655 11.25 5C11.25 5.32036 11.0086 5.58467 10.6979 5.62079L10.625 5.625H4.375C4.03 5.625 3.75 5.345 3.75 5C3.75 4.67964 3.99143 4.41533 4.30214 4.37921L4.375 4.375H10.625Z" fill="#758393"/>
</svg>
