<svg width="15" height="15" viewBox="0 0 15 15" fill="none" xmlns="http://www.w3.org/2000/svg">
<path d="M9.03125 2.25385L12.7497 5.97233L13.7934 4.9299L10.0749 1.21143L9.03125 2.25385Z" fill="#758393"/>
<path d="M14.2355 0.769754C13.3636 -0.102061 12.0294 -0.225803 11.0176 0.386665L14.6186 3.98768C15.2304 2.97648 15.1079 1.64221 14.2355 0.769754Z" fill="#758393"/>
<path d="M1.06958 10.2075C0.987696 10.2893 0.93022 10.3918 0.903327 10.5043L0.0171596 14.2253C-0.0334619 14.4359 0.0296684 14.6584 0.183408 14.8115C0.301524 14.9296 0.461503 14.9947 0.625261 14.9947C0.673392 14.9947 0.722139 14.989 0.769626 14.9778L4.49062 14.0916C4.6025 14.0647 4.70562 14.0072 4.78747 13.9253L11.8657 6.8552L8.1472 3.13672L1.06958 10.2075ZM9.1915 5.8034C9.43585 6.04775 9.43585 6.44273 9.1915 6.68708L6.69169 9.18689C6.56982 9.30876 6.40984 9.37002 6.24983 9.37002C6.08985 9.37002 5.92985 9.30876 5.80798 9.18689C5.56363 8.94255 5.56363 8.54756 5.80798 8.30321L8.30779 5.8034C8.55217 5.55905 8.94715 5.55905 9.1915 5.8034Z" fill="#758393"/>
</svg>
