<svg width="45" height="45" viewBox="0 0 45 45">
<g clip-path="url(#clip0_38_488)">
<path fill-rule="evenodd" clip-rule="evenodd" d="M22.9448 19.2836V27.0011H35.7058C35.1876 30.3139 31.8466 36.7044 22.9448 36.7044C15.2637 36.7044 8.99698 30.3422 8.99698 22.5008C8.99698 14.6604 15.2637 8.29807 22.9448 8.29807C27.3131 8.29807 30.2405 10.1625 31.9114 11.7686L38.0204 5.88804C34.1005 2.21569 29.0205 -0.000844002 22.9481 -0.000844002C10.511 -0.000844002 0.447266 10.0628 0.447266 22.5C0.447266 34.9372 10.511 45.0008 22.9481 45.0008C35.9309 45.0008 44.552 35.8689 44.552 23.0174C44.552 21.5409 44.3943 20.4164 44.1999 19.2911L22.9481 19.2819L22.9448 19.2836V19.2836Z" fill="#758393"/>
</g>
<defs>
<clipPath id="clip0_38_488">
<rect width="45" height="45" fill="white"/>
</clipPath>
</defs>
</svg>
