<svg width="21" height="20" viewBox="0 0 21 20" fill="none" xmlns="http://www.w3.org/2000/svg">
<path d="M20.1955 5.6763L18.4068 6.40741C19.2816 8.49141 19.2816 10.7868 18.4068 12.8708C17.532 14.9548 15.8871 16.578 13.7751 17.4412C11.6631 18.3044 9.3369 18.3044 7.22492 17.4412C5.11295 16.578 3.46804 14.9548 2.59324 12.8708C0.98352 9.03606 2.45965 4.68677 5.88712 2.52506V5.68318H7.82316V0H2.06364V1.91039H3.50836C2.34393 2.93446 1.41903 4.21237 0.804533 5.6763C-0.268178 8.23174 -0.268178 11.0465 0.804533 13.6019C1.87724 16.1573 3.89421 18.1476 6.484 19.2061C7.77902 19.7355 9.13928 20.0001 10.5 20C11.8604 20 13.2213 19.7353 14.516 19.2061C17.1058 18.1476 19.1228 16.1573 20.1955 13.6019C21.2682 11.0465 21.2682 8.23174 20.1955 5.6763Z" fill="#F3F5F7"/>
</svg>
