<svg width="15" height="15" viewBox="0 0 15 15" fill="none" xmlns="http://www.w3.org/2000/svg">
<path d="M13.9919 12.75L10.9769 9.73499C11.8229 8.72099 12.3314 7.41749 12.3314 5.99249C12.3329 2.76299 9.71844 0.149994 6.49044 0.149994C3.26095 0.149994 0.647949 2.76299 0.647949 5.99249C0.647949 9.22049 3.26095 11.835 6.49044 11.835C7.40694 11.835 8.27544 11.6235 9.04794 11.2485C9.09294 11.319 9.14694 11.385 9.20844 11.4465L12.2534 14.4915C12.7334 14.9715 13.5134 14.9715 13.9934 14.4915C14.4719 14.01 14.4719 13.23 13.9919 12.75ZM1.87795 5.99249C1.87795 3.44549 3.94345 1.37999 6.49044 1.37999C9.03744 1.37999 11.1029 3.44549 11.1029 5.99249C11.1029 8.53949 9.03594 10.605 6.49044 10.605C3.94345 10.605 1.87795 8.53949 1.87795 5.99249Z" fill="#758393"/>
</svg>
