<svg width="20" height="20" viewBox="0 0 20 20" fill="none" xmlns="http://www.w3.org/2000/svg">
<g clip-path="url(#clip0_52_1295)">
<path fill-rule="evenodd" clip-rule="evenodd" d="M10 8.03627e-06C12.3145 -0.000653535 14.5575 0.801253 16.347 2.26908C18.1364 3.7369 19.3615 5.77982 19.8135 8.04969C20.2655 10.3196 19.9165 12.6759 18.8258 14.7173C17.7351 16.7586 15.9703 18.3586 13.8322 19.2446C11.694 20.1306 9.31481 20.2477 7.09997 19.576C4.88513 18.9044 2.97171 17.4855 1.68578 15.5612C0.399851 13.6369 -0.179022 11.3262 0.0478068 9.02289C0.274636 6.71959 1.29313 4.56621 2.92973 2.9297C3.85704 1.99955 4.95907 1.26188 6.17245 0.759095C7.38583 0.256313 8.68662 -0.00165986 10 8.03627e-06ZM12.3698 5.30925C12.6787 5.30889 12.9831 5.38297 13.2573 5.5252C13.5314 5.66743 13.7673 5.87363 13.9448 6.12635C14.1224 6.37907 14.2365 6.67085 14.2774 6.97699C14.3183 7.28314 14.2848 7.59463 14.1797 7.88508C14.0747 8.17554 13.9012 8.43641 13.674 8.64561C13.4468 8.85481 13.1725 9.00617 12.8744 9.08687C12.5762 9.16758 12.263 9.17525 11.9613 9.10925C11.6596 9.04325 11.3782 8.90551 11.141 8.70769L8.58728 9.76564C8.59596 9.83942 8.60085 9.91266 8.60193 9.98536L11.2566 11.2142C11.6221 10.9557 12.0668 10.8335 12.5132 10.8689C12.9596 10.9043 13.3794 11.0951 13.6996 11.4081C14.0198 11.7211 14.2202 12.1365 14.2658 12.5819C14.3115 13.0273 14.1995 13.4747 13.9494 13.8461C13.6993 14.2175 13.3268 14.4895 12.8969 14.6147C12.467 14.7399 12.0068 14.7104 11.5964 14.5314C11.186 14.3523 10.8513 14.035 10.6506 13.6348C10.45 13.2345 10.396 12.7765 10.4981 12.3405L8.13807 11.2549C6.98572 12.6009 4.75265 11.7936 4.75265 10.0049C4.75209 9.6314 4.86017 9.2658 5.06372 8.95265C5.26728 8.6395 5.55751 8.3923 5.89907 8.24119C6.24063 8.09008 6.61877 8.04156 6.98741 8.10156C7.35606 8.16156 7.69929 8.32748 7.97531 8.57911L10.4818 7.53256C10.4384 7.25897 10.4547 6.97923 10.5295 6.7125C10.6042 6.44577 10.7358 6.19835 10.9151 5.9872C11.0944 5.77605 11.3172 5.60615 11.5683 5.48913C11.8194 5.37212 12.0928 5.31076 12.3698 5.30925Z" fill="#758393"/>
</g>
<defs>
<clipPath id="clip0_52_1295">
<rect width="20" height="20" fill="white"/>
</clipPath>
</defs>
</svg>
