<svg width="24" height="24" viewBox="0 0 24 24" fill="none" xmlns="http://www.w3.org/2000/svg">
<path d="M0.38603 10.9901H4.73387C4.91462 10.9901 5.06214 10.8473 5.07016 10.6667C5.11872 9.58029 5.2263 8.51983 5.38961 7.50311C5.42237 7.29893 5.26417 7.11438 5.05745 7.11438H1.22969C1.09347 7.11438 0.971686 7.19693 0.918577 7.32236C0.481092 8.35493 0.183998 9.46075 0.0510608 10.6159C0.028092 10.8152 0.185311 10.9901 0.38603 10.9901Z" fill="#758393"/>
<path d="M2.82761 5.09468H5.64596C5.79676 5.09468 5.93026 4.99531 5.97146 4.85028C6.28234 3.7549 6.69901 2.63351 7.24178 1.61619C7.39426 1.33034 7.0899 1.01534 6.79796 1.15597C5.14197 1.95364 3.69545 3.11942 2.56534 4.54686C2.38984 4.76857 2.54481 5.09468 2.82761 5.09468Z" fill="#758393"/>
<path d="M8.46313 5.09467H15.5372C15.7673 5.09467 15.9292 4.86874 15.8564 4.65035C13.7894 -1.54794 10.2124 -1.55229 8.14396 4.65035C8.07117 4.86864 8.23298 5.09467 8.46313 5.09467Z" fill="#758393"/>
<path d="M16.5706 13.0099H7.42947C7.23672 13.0099 7.08377 13.1716 7.09305 13.364C7.14879 14.5167 7.27404 15.6023 7.45469 16.6071C7.48366 16.7681 7.62288 16.8856 7.78638 16.8856H16.2137C16.3772 16.8856 16.5164 16.7681 16.5453 16.6071C16.7261 15.6023 16.8513 14.5167 16.907 13.364C16.9163 13.1716 16.7634 13.0099 16.5706 13.0099Z" fill="#758393"/>
<path d="M5.38969 16.4969C5.22638 15.4802 5.1188 14.4197 5.07024 13.3333C5.06218 13.1527 4.91471 13.0099 4.73396 13.0099H0.386068C0.185303 13.0099 0.0281308 13.1847 0.0510527 13.3842C0.184037 14.5393 0.481131 15.6451 0.918568 16.6777C0.971678 16.8031 1.09346 16.8857 1.22968 16.8857H5.05744C5.2643 16.8856 5.42251 16.701 5.38969 16.4969Z" fill="#758393"/>
<path d="M7.42955 10.9901H16.5707C16.7635 10.9901 16.9164 10.8284 16.9071 10.6359C16.8514 9.48329 16.7261 8.39771 16.5455 7.39285C16.5165 7.23188 16.3773 7.11441 16.2138 7.11441H7.78651C7.62296 7.11441 7.48374 7.23188 7.45482 7.39285C7.27412 8.39771 7.14891 9.48333 7.09318 10.6359C7.08385 10.8284 7.2368 10.9901 7.42955 10.9901Z" fill="#758393"/>
<path d="M18.0287 4.85023C18.0699 4.99526 18.2034 5.09464 18.3542 5.09464H21.1726C21.4553 5.09464 21.6103 4.76853 21.4348 4.54681C20.3048 3.11932 18.8582 1.95359 17.2022 1.15592C16.9102 1.01534 16.6059 1.33029 16.7583 1.61614C17.3009 2.63314 17.7176 3.75439 18.0287 4.85023Z" fill="#758393"/>
<path d="M18.6106 7.5031C18.774 8.51982 18.8815 9.58032 18.9301 10.6667C18.9382 10.8473 19.0856 10.9901 19.2664 10.9901H23.6143C23.815 10.9901 23.9722 10.8153 23.9493 10.6158C23.8163 9.46069 23.5192 8.35491 23.0818 7.3223C23.0287 7.19687 22.9069 7.11432 22.7707 7.11432H18.9429C18.736 7.11437 18.5778 7.29891 18.6106 7.5031Z" fill="#758393"/>
<path d="M23.6141 13.0099H19.2662C19.0855 13.0099 18.938 13.1527 18.93 13.3333C18.8814 14.4198 18.7738 15.4802 18.6105 16.4969C18.5777 16.7011 18.736 16.8856 18.9427 16.8856H22.7704C22.9067 16.8856 23.0284 16.8031 23.0815 16.6776C23.519 15.6451 23.8161 14.5392 23.9491 13.3841C23.9721 13.1847 23.815 13.0099 23.6141 13.0099Z" fill="#758393"/>
<path d="M21.1726 18.9053H18.3542C18.2034 18.9053 18.0699 19.0047 18.0287 19.1497C17.7178 20.245 17.3011 21.3665 16.7584 22.3838C16.6058 22.6696 16.9103 22.9846 17.2022 22.844C18.8582 22.0464 20.3048 20.8806 21.4348 19.4531C21.6103 19.2314 21.4553 18.9053 21.1726 18.9053Z" fill="#758393"/>
<path d="M5.97142 19.1497C5.93022 19.0046 5.79672 18.9053 5.64592 18.9053H2.82756C2.54481 18.9053 2.38984 19.2314 2.56534 19.4531C3.69536 20.8806 5.14187 22.0464 6.79797 22.844C7.08986 22.9846 7.39426 22.6696 7.24178 22.3838C6.6992 21.3668 6.28244 20.2453 5.97142 19.1497Z" fill="#758393"/>
<path d="M15.5372 18.9053H8.46314C8.23293 18.9053 8.07117 19.1312 8.14397 19.3496C10.2109 25.5479 13.7879 25.5523 15.8564 19.3496C15.9292 19.1312 15.7673 18.9053 15.5372 18.9053Z" fill="#758393"/>
</svg>
