<svg width="7" height="9" viewBox="0 0 7 9" fill="none" xmlns="http://www.w3.org/2000/svg">
<path d="M6.96325 4.36036L3.63983 0.0683861C3.60654 0.0253029 3.55463 0 3.50005 0C3.44518 0 3.39356 0.0253029 3.36027 0.0683861L0.0365572 4.36036C0.0122181 4.39194 0 4.42944 0 4.46718C0 4.50422 0.011752 4.54139 0.0356443 4.57261C0.0831181 4.63542 0.167402 4.65885 0.241118 4.63006L2.44193 3.76691L2.44168 8.82491C2.44191 8.92168 2.52068 9 2.61827 9H4.38152C4.47911 9 4.55788 8.92168 4.55811 8.82491L4.55788 3.76691L6.75865 4.63018C6.83247 4.65895 6.91675 4.63554 6.9644 4.57261C7.01216 4.50968 7.01195 4.42282 6.96325 4.36036Z" fill="#F3F5F7"/>
</svg>
