<svg width="188" height="87" viewBox="0 0 188 87" fill="none" xmlns="http://www.w3.org/2000/svg">
<path d="M187.57 47.4669V47.3527L179.45 42.4989L187.57 37.6473V37.5354V20L166.508 32.6108V40.153L181.597 31.1192V33.6386L167.456 42.1425V42.8575L181.597 51.3636V53.8808L166.508 44.847V52.3892L187.57 65V47.4669Z" fill="#24252D"/>
<path d="M144 47.4669V47.3527L152.12 42.4989L144 37.6473V37.5354V20L165.062 32.6108V40.153L149.975 31.1192V33.6386L164.114 42.1425V42.8575L149.975 51.3636V53.8808L165.062 44.847V52.3892L144 65V47.4669Z" fill="#24252D"/>
<path d="M30.4062 51.5312C29.5729 52.5729 28.6771 53.4167 27.7188 54.0625C25.9271 55.2917 23.9792 55.9062 21.875 55.9062C19.7708 55.9062 17.8229 55.2917 16.0312 54.0625C14.2396 52.8333 12.8125 51.2083 11.75 49.1875C10.6875 47.1458 10.1562 45.0208 10.1562 42.8125C10.1562 40.6042 10.6771 38.4792 11.7188 36.4375C12.7812 34.4167 14.2083 32.7917 16 31.5625C17.8333 30.3333 19.7917 29.7188 21.875 29.7188C23.9583 29.7188 25.9167 30.3333 27.75 31.5625C28.5833 32.1042 29.4479 32.9062 30.3438 33.9688L37.5 26.5625C36.125 25.0625 34.5625 23.7708 32.8125 22.6875C29.4792 20.625 25.8333 19.5938 21.875 19.5938C17.9375 19.5938 14.2917 20.625 10.9375 22.6875C7.5625 24.7917 4.89583 27.6042 2.9375 31.125C0.979167 34.6667 0 38.5625 0 42.8125C0 47.0417 0.979167 50.9271 2.9375 54.4688C4.89583 57.9896 7.5625 60.7917 10.9375 62.875C14.2917 64.9375 17.9375 65.9688 21.875 65.9688C25.8333 65.9688 29.4792 64.9375 32.8125 62.875C34.5625 61.7917 36.1458 60.4792 37.5625 58.9375L30.4062 51.5312ZM59.3125 29.75C57.0417 29.75 54.9479 30.3646 53.0312 31.5938C51.0938 32.8021 49.5625 34.4271 48.4375 36.4688C47.3125 38.4896 46.75 40.6146 46.75 42.8438C46.75 45.0729 47.3229 47.1979 48.4688 49.2188C49.6146 51.2812 51.1354 52.9167 53.0312 54.125C54.9479 55.3542 57.0417 55.9688 59.3125 55.9688C61.5625 55.9688 63.6458 55.3542 65.5625 54.125C67.4583 52.9167 68.9896 51.2812 70.1562 49.2188C71.2812 47.1771 71.8438 45.0521 71.8438 42.8438C71.8438 40.6146 71.2812 38.4896 70.1562 36.4688C69.0312 34.4479 67.5104 32.8229 65.5938 31.5938C63.6354 30.3646 61.5417 29.75 59.3125 29.75ZM59.3125 19.625C63.5417 19.625 67.4479 20.6562 71.0312 22.7188C74.6354 24.8021 77.4792 27.6146 79.5625 31.1562C81.6667 34.7396 82.7188 38.6354 82.7188 42.8438C82.7188 47.0729 81.6667 50.9583 79.5625 54.5C77.4792 58.0625 74.6354 60.875 71.0312 62.9375C67.4479 65 63.5417 66.0312 59.3125 66.0312C55.1042 66.0312 51.1979 65 47.5938 62.9375C43.9688 60.8542 41.1146 58.0417 39.0312 54.5C36.9271 50.9583 35.875 47.0729 35.875 42.8438C35.875 38.6354 36.9271 34.7396 39.0312 31.1562C41.1146 27.6354 43.9688 24.8229 47.5938 22.7188C51.1979 20.6562 55.1042 19.625 59.3125 19.625ZM84.3125 20.6875H95.1875V65L84.3125 64.9688V20.6875ZM135.875 65.0312L107.656 42.375L107.688 64.9062H96.75V20.0312L125 41.125V20.6562L135.875 20.7188V65.0312Z" fill="#24252D"/>
</svg>
